<svg width="28" height="28" viewBox="0 0 28 28" fill="none" xmlns="http://www.w3.org/2000/svg">
<g clip-path="url(#clip0)">
<path d="M18.48 27.9743C18.48 27.9602 18.4403 27.9432 18.3937 27.9376C18.3143 27.9263 18.172 27.8923 17.8267 27.8046C17.7683 27.7905 17.6003 27.7509 17.4533 27.717C17.3063 27.6859 17.1477 27.6463 17.1033 27.6321C17.059 27.618 16.9633 27.5982 16.8933 27.5897C16.7557 27.5727 16.541 27.5303 16.3917 27.4907C16.3403 27.4766 16.24 27.4539 16.17 27.437C16.1 27.42 15.8853 27.3691 15.6917 27.3238C15.0243 27.1655 14.9543 27.1513 14.882 27.1513C14.8423 27.1513 14.7723 27.14 14.7257 27.123C14.651 27.1004 14.4503 27.0495 14.1517 26.9816C14.1003 26.9703 13.9487 26.9307 13.8133 26.8968C13.5147 26.8204 13.412 26.7978 13.1717 26.7554C13.069 26.7356 12.9477 26.7101 12.9033 26.6988C12.859 26.6846 12.7073 26.6479 12.565 26.6139C12.425 26.58 12.271 26.5432 12.2267 26.5291C12.1823 26.5149 12.0867 26.4895 12.0167 26.4725C11.9467 26.4527 11.851 26.4273 11.8067 26.416C11.606 26.3594 11.4823 26.3311 11.3633 26.3141C11.2933 26.3057 11.151 26.2745 11.0483 26.2491C10.9457 26.2208 10.7987 26.1812 10.7217 26.1614C10.6447 26.1444 10.4977 26.1048 10.395 26.0766C10.2923 26.0483 10.15 26.0115 10.08 25.9945C10.01 25.9747 9.90967 25.9493 9.85833 25.9351C9.807 25.9182 9.68567 25.8956 9.59 25.8786C9.49433 25.8644 9.36833 25.839 9.31 25.822C9.19567 25.7909 9.009 25.7457 8.84333 25.7089C8.785 25.6947 8.69167 25.6693 8.63333 25.6551C8.575 25.6382 8.477 25.6127 8.41167 25.5986C8.34867 25.5816 8.211 25.5505 8.10833 25.5279C8.00567 25.5024 7.84233 25.4685 7.74667 25.4543C7.50167 25.4119 7.38267 25.3865 7.02333 25.3016C6.85067 25.262 6.65233 25.2139 6.587 25.1998C6.51933 25.1828 6.40733 25.1602 6.342 25.1432C6.21833 25.1149 5.908 25.0612 5.51833 25.0018C5.404 24.9848 5.26167 24.9594 5.20333 24.9452C5.145 24.9311 5.019 24.9057 4.92333 24.8887C4.69233 24.8491 4.33767 24.7529 4.17667 24.6907C4.10667 24.6624 4.011 24.6313 3.96667 24.62C3.84067 24.5917 3.65867 24.5012 3.30167 24.2891C2.961 24.0883 2.88867 24.0374 2.681 23.8648C2.61333 23.8054 2.548 23.7574 2.53633 23.7574C2.50133 23.7574 2.08367 23.3162 1.855 23.0362C1.61933 22.7477 1.4 22.4564 1.4 22.4309C1.4 22.4139 1.20867 22.1056 1.18767 22.0887C1.155 22.0604 1.05467 21.8681 1.03833 21.803C1.029 21.7663 1.00333 21.7097 0.98 21.6786C0.921667 21.5937 0.7 21.1384 0.7 21.0988C0.7 21.079 0.653333 20.9432 0.595 20.7962C0.536667 20.6491 0.49 20.5162 0.49 20.502C0.49 20.485 0.478333 20.4454 0.462 20.4115C0.417667 20.3125 0.371 20.1598 0.35 20.0382C0.338333 19.9759 0.287 19.7355 0.235667 19.5008C0.123667 19.0087 0.0466667 18.4176 0.0466667 18.0669C0.0466667 17.9198 0.0373333 17.818 0.0233333 17.818C0.0116667 17.818 0 17.7812 0 17.7331C0 17.6879 0.00933333 17.6483 0.021 17.6483C0.0303333 17.6483 0.0466667 17.5549 0.0513333 17.4446C0.0676667 17.1929 0.119 17.0034 0.231 16.8026C0.277667 16.7178 0.324333 16.6244 0.338333 16.5961C0.35 16.5679 0.368667 16.5452 0.380333 16.5452C0.392 16.5452 0.455 16.5141 0.520333 16.4774C0.707 16.3755 0.928667 16.3388 1.141 16.3755C1.323 16.4038 1.505 16.4462 1.66833 16.4915C1.71967 16.5056 1.84567 16.5311 1.94833 16.5452C2.051 16.5594 2.18167 16.5848 2.24 16.6018C2.33567 16.6273 2.39167 16.6414 2.70667 16.7121C2.765 16.7262 3.03333 16.7885 3.30167 16.8507C3.57233 16.9157 3.871 16.9808 3.96667 16.9978C4.06233 17.0176 4.16267 17.043 4.18833 17.0543C4.214 17.0685 4.27233 17.0854 4.31667 17.0911C4.39133 17.1024 4.60367 17.1505 4.88133 17.224C4.94433 17.2382 5.04933 17.2664 5.11467 17.2834C5.18233 17.3004 5.27567 17.3258 5.32 17.3372C5.36433 17.3513 5.46467 17.3711 5.54167 17.3796C5.61867 17.3909 5.761 17.4192 5.85667 17.4418C5.95233 17.4673 6.07367 17.4955 6.125 17.5069C6.356 17.5606 6.622 17.6256 6.69667 17.6483C6.77833 17.6709 7.24267 17.7755 7.65333 17.8604C7.88667 17.9113 8.02433 17.9424 8.17833 17.9848C8.22967 17.999 8.36033 18.0301 8.47 18.0555C8.57967 18.081 8.70567 18.1149 8.75 18.1262C8.90867 18.1743 9.23533 18.2422 9.30067 18.2422C9.33567 18.2422 9.39633 18.2535 9.436 18.2677C9.47567 18.2846 9.625 18.3214 9.765 18.3553C9.90733 18.3893 10.0637 18.4289 10.115 18.443C10.255 18.4798 10.5677 18.5561 10.6867 18.5816C10.745 18.5957 10.808 18.6127 10.8267 18.6212C10.8453 18.6297 10.9457 18.6495 11.0483 18.6636C11.151 18.6806 11.3353 18.7174 11.4567 18.7513C11.578 18.7852 11.732 18.822 11.795 18.8361C11.8603 18.8503 11.9583 18.8757 12.0167 18.8899C12.2033 18.9436 12.4413 19.0002 12.7517 19.0624C12.8427 19.0794 12.999 19.1133 13.1017 19.1388C13.2043 19.1614 13.3373 19.1925 13.4003 19.2067C13.503 19.2293 13.5917 19.2519 13.8553 19.317C13.916 19.3311 14.0233 19.3566 14.0933 19.3707C14.1633 19.3877 14.2963 19.4188 14.385 19.4414C14.476 19.4612 14.616 19.4895 14.7 19.5008C14.9403 19.5291 15.3697 19.7129 15.4163 19.8063C15.4257 19.826 15.4677 19.8713 15.5073 19.9052C15.61 19.9901 15.7243 20.2192 15.764 20.4115C15.7803 20.502 15.8107 20.799 15.8317 21.0705C15.8877 21.8313 15.967 22.2697 16.163 22.923C16.2703 23.2766 16.639 24.077 16.7393 24.1788C16.7603 24.2014 16.793 24.258 16.8117 24.3089C16.8513 24.4079 17.3413 25.0301 17.3833 25.0301C17.3973 25.0301 17.4323 25.0556 17.4603 25.0895C17.577 25.2224 17.7777 25.3695 18.0017 25.4826C18.0273 25.4939 18.0903 25.5279 18.1417 25.5562C18.2443 25.6099 18.3237 25.6382 18.55 25.6947C18.823 25.7655 19.5183 25.7315 19.5907 25.6438C19.6 25.6325 19.6257 25.624 19.6467 25.624C19.698 25.624 19.936 25.5052 19.9453 25.477C19.95 25.4657 19.9757 25.4543 19.999 25.4543C20.0433 25.4543 20.251 25.3299 20.2767 25.2875C20.2837 25.2762 20.3257 25.2366 20.37 25.1998C20.6313 24.9792 20.8483 24.719 21.063 24.3739C21.1307 24.2608 21.196 24.1618 21.2053 24.1533C21.2357 24.1279 21.35 23.9016 21.35 23.8677C21.35 23.8507 21.371 23.8026 21.399 23.763C21.476 23.6414 21.616 23.3642 21.714 23.1351C21.763 23.0192 21.8167 22.9061 21.8307 22.8891C21.875 22.8353 22.4 21.5315 22.4 21.4806C22.4 21.4636 22.5167 21.1412 22.6637 20.7622C22.701 20.6604 22.7383 20.5303 22.7453 20.4709C22.75 20.4115 22.764 20.3634 22.7733 20.3634C22.7827 20.3634 22.8037 20.3097 22.82 20.2446C22.8387 20.1768 22.8737 20.0665 22.897 19.9957C22.953 19.8402 23.2587 18.7711 23.373 18.3412C23.4173 18.1715 23.5177 17.7897 23.5947 17.4927C23.6693 17.1986 23.7417 16.9327 23.7557 16.9073C23.7673 16.879 23.7837 16.7885 23.7907 16.7008C23.8 16.6159 23.8163 16.5452 23.8257 16.5452C23.8373 16.5452 23.8467 16.5283 23.8467 16.5056C23.8467 16.4858 23.8723 16.3727 23.9027 16.2596C23.933 16.1436 23.9867 15.9372 24.0217 15.7957C24.0567 15.6572 24.101 15.4875 24.1173 15.4196C24.136 15.3545 24.15 15.2753 24.15 15.2442C24.15 15.2159 24.199 14.9897 24.2573 14.7436C24.423 14.0563 24.4533 13.9178 24.4883 13.6887C24.507 13.5727 24.5443 13.3747 24.5723 13.2503C24.598 13.1258 24.6283 12.9788 24.64 12.925C24.6493 12.8713 24.696 12.6479 24.7403 12.4301C24.787 12.2123 24.836 11.9464 24.85 11.8361C24.8757 11.6382 24.906 11.4656 24.99 11.0584C25.0133 10.9424 25.0693 10.6228 25.1137 10.3513C25.1603 10.0798 25.235 9.62725 25.2817 9.34725C25.3283 9.06725 25.3843 8.74199 25.403 8.62603C25.4217 8.51007 25.452 8.32624 25.4707 8.21593C25.4893 8.10846 25.515 7.93593 25.529 7.83411C25.543 7.7323 25.5687 7.5428 25.5873 7.40987C25.6037 7.27694 25.6363 7.08179 25.655 6.97149C25.6737 6.86401 25.7063 6.67169 25.725 6.54724C25.7437 6.4228 25.788 6.16825 25.8207 5.98159C25.8977 5.53189 25.9233 4.86158 25.8673 4.72865C25.8253 4.63249 25.7227 4.53067 25.592 4.45714C25.466 4.38926 24.9293 4.28179 24.5817 4.25633C24.4673 4.24785 24.2993 4.22805 24.2083 4.21391C24.1197 4.19976 23.9563 4.17431 23.8467 4.16017C23.737 4.1432 23.485 4.1036 23.2867 4.07249C23.0883 4.04138 22.8457 4.00178 22.75 3.98764C22.6543 3.97067 22.491 3.94522 22.3883 3.92825C22.2857 3.91128 22.1503 3.88865 22.085 3.87451C22.022 3.86037 21.8587 3.84057 21.7233 3.83209C21.588 3.8236 21.4107 3.8038 21.3267 3.78966C21.2427 3.77552 21.091 3.75007 20.9883 3.7331C20.8857 3.71613 20.6873 3.68219 20.545 3.65956C20.405 3.63411 20.209 3.603 20.1133 3.58886C20.0177 3.57754 19.859 3.55209 19.7633 3.53512C19.4787 3.48421 19.2757 3.4531 19.0283 3.42481C18.487 3.35694 18.298 3.33148 18.1767 3.30885C17.9923 3.27209 17.542 3.19572 17.3367 3.16461C17.241 3.15047 17.0147 3.1137 16.835 3.08259C16.6553 3.05148 16.3987 3.01188 16.2633 2.99491C15.9763 2.9638 15.7687 2.93269 15.3183 2.85633C15.1387 2.82522 14.756 2.763 14.4667 2.71491C14.1773 2.66683 13.867 2.61592 13.776 2.59895C13.685 2.58481 13.5007 2.55936 13.3677 2.54239C13.2347 2.52825 13.062 2.50562 12.985 2.49148C12.4647 2.40663 12.3667 2.39815 12.271 2.41512C12.2103 2.42643 12.1123 2.47451 12.054 2.51976C11.9583 2.59613 11.942 2.62724 11.9023 2.79411C11.802 3.19572 11.55 4.45431 11.55 4.54199C11.55 4.5929 11.5407 4.64381 11.5267 4.65229C11.515 4.66078 11.5033 4.69189 11.5033 4.72017C11.5033 4.76542 11.3727 5.35936 11.2817 5.72704C11.263 5.80623 11.2303 5.96462 11.2117 6.08058C11.1907 6.19654 11.151 6.39452 11.1183 6.51896C11.0297 6.87815 10.8593 7.60785 10.829 7.76341C10.8057 7.88219 10.661 8.44785 10.5327 8.93149C10.514 8.99654 10.5 9.07007 10.5 9.08987C10.5 9.10967 10.43 9.38119 10.346 9.68947C10.262 10.0006 10.178 10.323 10.1617 10.4079C10.1453 10.4927 10.0777 10.7472 10.01 10.9735C9.842 11.5448 9.8 11.706 9.8 11.7767C9.8 11.8107 9.79067 11.8503 9.779 11.8673C9.76733 11.8814 9.737 11.9747 9.709 12.0765C9.681 12.1784 9.64833 12.2858 9.63667 12.3169C9.625 12.3481 9.59467 12.4555 9.56667 12.5574C9.541 12.6592 9.50833 12.761 9.49667 12.7864C9.485 12.8119 9.46867 12.8826 9.45933 12.942C9.45233 13.0042 9.43133 13.0919 9.41267 13.1372C9.34733 13.3153 9.1 14.1412 9.1 14.1893C9.1 14.2091 9.06967 14.3052 9.03467 14.4014C8.99733 14.5004 8.95533 14.6361 8.93667 14.7069C8.918 14.7776 8.89 14.8596 8.876 14.8907C8.85967 14.9218 8.80367 15.1056 8.75233 15.3008C8.69867 15.4959 8.645 15.6798 8.631 15.7081C8.617 15.7392 8.58433 15.8495 8.561 15.957C8.45833 16.4038 8.35333 16.5254 8.12467 16.4632C8.064 16.4491 7.966 16.4264 7.903 16.418C7.84233 16.4095 7.60667 16.3444 7.378 16.2737C7.15167 16.2058 6.902 16.1351 6.82733 16.121C6.75033 16.1069 6.678 16.0814 6.66633 16.0673C6.62667 16.0192 6.69667 15.6628 6.82967 15.2584C6.89967 15.0406 6.972 14.8058 6.99067 14.7351C7.007 14.6644 7.07 14.4551 7.13067 14.2685C7.19133 14.0818 7.266 13.8329 7.29633 13.7169C7.35233 13.5133 7.43167 13.2418 7.616 12.6365C7.66267 12.4866 7.7 12.3452 7.7 12.3283C7.7 12.2858 7.784 11.9832 7.83067 11.8559C7.85167 11.805 7.882 11.6976 7.903 11.6155C7.92167 11.5335 7.945 11.4571 7.95433 11.4402C7.96367 11.426 7.98933 11.3355 8.01267 11.2422C8.03367 11.1489 8.12933 10.7812 8.225 10.422C8.32067 10.0656 8.46767 9.50563 8.55167 9.17755C8.638 8.8523 8.71733 8.55533 8.729 8.51856C8.74067 8.48179 8.75 8.42523 8.75 8.39411C8.75 8.36017 8.771 8.26118 8.79433 8.17634C8.82 8.08866 8.87367 7.88502 8.91333 7.72098C8.95533 7.55694 9.009 7.34765 9.03467 7.25431C9.058 7.16098 9.086 7.0224 9.093 6.9432C9.1 6.86684 9.114 6.79613 9.12333 6.78765C9.13267 6.77916 9.16067 6.67734 9.18867 6.56138C9.21667 6.44542 9.27733 6.19088 9.324 5.99573C9.36833 5.80058 9.42667 5.53189 9.45 5.39613C9.47333 5.26037 9.50367 5.10765 9.51767 5.05674C9.53167 5.00583 9.56433 4.87007 9.59 4.75977C9.61567 4.64663 9.65767 4.46845 9.68333 4.36098C9.709 4.25633 9.76033 3.99896 9.79767 3.78966C9.87233 3.37108 9.91667 3.15047 10.0403 2.57067C10.0847 2.35855 10.129 2.1238 10.1383 2.04744C10.171 1.76744 10.3413 0.941579 10.3973 0.791679C10.43 0.706831 10.472 0.590871 10.493 0.537134C10.556 0.358952 10.8967 0.0902643 11.095 0.0648097C11.1533 0.0563249 11.2 0.0365269 11.2 0.0252137C11.2 -0.00872571 11.5197 -0.00589743 11.5383 0.028042C11.5453 0.0450117 11.5967 0.0563249 11.648 0.0563249C11.7017 0.0563249 11.8043 0.067638 11.8743 0.0846078C11.9467 0.0987492 12.0937 0.124204 12.2033 0.141173C12.313 0.158143 12.4693 0.183598 12.5533 0.197739C12.6373 0.211881 12.789 0.237335 12.8917 0.251477C12.9943 0.268446 13.1623 0.293901 13.265 0.310871C13.3677 0.32784 13.5147 0.353295 13.5917 0.367436C13.6687 0.384406 13.8577 0.409861 14.0117 0.424002C14.2963 0.452285 14.357 0.46077 15.015 0.568245C15.2203 0.602184 15.456 0.638952 15.54 0.650265C15.624 0.664407 15.7757 0.687033 15.8783 0.706831C15.981 0.723801 16.1443 0.749255 16.24 0.763397C16.3357 0.780366 16.4897 0.802993 16.5783 0.819962C16.6693 0.834104 16.7977 0.845417 16.8677 0.848245C16.9377 0.848245 17.0543 0.859558 17.1243 0.876528C17.248 0.901983 17.633 0.964205 18.0017 1.01794C18.0927 1.03208 18.2443 1.05471 18.34 1.07168C18.4357 1.08865 18.5943 1.1141 18.69 1.12825C18.7857 1.14522 18.9863 1.17633 19.1333 1.20178C19.2803 1.22724 19.481 1.25269 19.5767 1.26117C19.6723 1.26683 19.8193 1.28663 19.9033 1.30077C20.0807 1.33471 20.5963 1.41673 20.7317 1.4337C20.783 1.43936 20.972 1.47047 21.1517 1.50158C21.3313 1.52986 21.5623 1.56946 21.665 1.58643C21.7677 1.6034 21.91 1.62885 21.98 1.64299C22.05 1.65714 22.204 1.6741 22.3183 1.68259C22.5167 1.69673 22.5913 1.70804 23.03 1.78158C23.457 1.85229 23.5527 1.86926 23.8933 1.92299C24.0917 1.95411 24.402 2.00501 24.5817 2.03613C24.7613 2.06724 24.997 2.09835 25.1067 2.10966C25.2163 2.11815 25.41 2.1436 25.5383 2.16623C25.6667 2.18602 25.9397 2.23128 26.145 2.26239C27.041 2.40097 27.349 2.47451 27.552 2.59613C27.7177 2.69512 27.9533 3.06845 27.9533 3.22683C27.9533 3.25795 27.965 3.28057 27.9767 3.28057C27.9907 3.28057 28 3.38805 28 3.54926C28 3.71047 27.9907 3.81795 27.9767 3.81795C27.965 3.81795 27.9533 3.85754 27.9533 3.90279C27.9533 3.95088 27.9253 4.163 27.8927 4.37795C27.86 4.59007 27.825 4.84179 27.8133 4.93512C27.8017 5.02845 27.7807 5.17552 27.7667 5.26037C27.7107 5.59411 27.65 6.07209 27.65 6.15694C27.65 6.20785 27.6407 6.30401 27.6267 6.36906C27.615 6.43694 27.5823 6.63209 27.5567 6.80179C27.4633 7.42684 27.37 8.02078 27.3467 8.1424C27.3327 8.21028 27.3163 8.34321 27.3093 8.43937C27.3023 8.5327 27.2697 8.76462 27.237 8.95129C27.2067 9.13795 27.1717 9.35573 27.16 9.4321C27.1483 9.51129 27.1063 9.75735 27.0667 9.98361C27.0247 10.2099 26.978 10.5012 26.9617 10.6341C26.9337 10.8547 26.81 11.5363 26.6933 12.1331C26.6653 12.266 26.6303 12.4753 26.6117 12.5998C26.5953 12.7242 26.5207 13.106 26.446 13.4483C26.3737 13.7905 26.2897 14.2062 26.2593 14.3703C26.2127 14.639 26.173 14.8256 25.991 15.5978C25.9653 15.7081 25.9303 15.8778 25.9117 15.9796C25.8953 16.0814 25.865 16.22 25.8463 16.2907C25.8277 16.3614 25.7833 16.5339 25.7483 16.6725C25.7133 16.8139 25.655 17.0374 25.6177 17.1759C25.5803 17.3117 25.55 17.4446 25.55 17.4701C25.55 17.4955 25.473 17.7982 25.3773 18.1404C25.284 18.4854 25.1907 18.8305 25.1697 18.9069C25.1277 19.0766 25.0203 19.4386 24.9783 19.5574C24.962 19.6054 24.9247 19.7327 24.8967 19.8402C24.8313 20.0806 24.6167 20.7622 24.5957 20.8018C24.5863 20.8188 24.5583 20.9065 24.535 20.9998C24.5117 21.0931 24.479 21.2091 24.4627 21.2543C24.374 21.4976 24.164 22.1198 24.1337 22.2301C24.115 22.3008 24.08 22.4026 24.0567 22.4564C23.9587 22.6854 23.8257 23.0446 23.8093 23.121C23.8 23.1691 23.7253 23.3586 23.6413 23.5452C23.5597 23.7319 23.4757 23.9355 23.457 23.9978C23.4407 24.06 23.3987 24.159 23.366 24.2184C23.3053 24.3287 23.2867 24.3711 23.135 24.7048C23.086 24.8151 23.0137 24.9537 22.974 25.016C22.9063 25.1206 22.7943 25.3186 22.7383 25.4317C22.596 25.7259 22.05 26.4527 21.7817 26.7129C21.7187 26.7751 21.6603 26.8317 21.6533 26.8402C21.6463 26.8487 21.6043 26.8883 21.56 26.925C21.4713 27.0014 21.4083 27.0608 21.3617 27.1174C21.343 27.1343 21.3173 27.1513 21.301 27.1513C21.287 27.1513 21.2357 27.1796 21.189 27.2135C20.9253 27.4143 20.713 27.536 20.4867 27.6152C20.4167 27.6406 20.3373 27.6745 20.3117 27.6859C20.286 27.7 20.2183 27.7255 20.16 27.7453C20.1017 27.7622 20.0247 27.7877 19.985 27.8018C19.8707 27.8442 19.3877 27.9432 19.3037 27.9432C19.2617 27.9432 19.2267 27.9574 19.2267 27.9715C19.2267 27.9885 19.0867 27.9998 18.8533 27.9998C18.648 27.9998 18.48 27.9885 18.48 27.9743Z" fill="#20206B"/>
<path d="M18.5967 19.6226C18.5524 19.6085 18.5057 19.583 18.494 19.5689C18.48 19.5548 18.4544 19.5434 18.431 19.5434C18.389 19.5434 18.1767 19.2832 18.1767 19.2295C18.1767 19.2097 18.158 19.1673 18.1324 19.1362C18.0764 19.0598 17.8267 18.4743 17.8267 18.4178C17.8267 18.3951 17.773 18.2481 17.7077 18.0897C17.6424 17.9341 17.563 17.7277 17.5327 17.6343C17.5 17.541 17.4604 17.4279 17.4417 17.3798C17.3064 17.0121 17.276 16.8367 17.3157 16.6642C17.332 16.5907 17.3554 16.52 17.3647 16.503C17.374 16.4889 17.423 16.4097 17.4744 16.3305C17.5724 16.1749 17.6984 16.0872 17.934 16.0109C18.0717 15.9656 18.1137 15.9713 18.2747 16.0533C18.4077 16.1212 18.5477 16.2654 18.55 16.3333C18.55 16.3503 18.5664 16.3983 18.585 16.4436C18.6037 16.4889 18.6364 16.5907 18.655 16.6727C18.697 16.8452 18.795 17.0432 18.9024 17.1648C19.0284 17.3119 19.1964 17.2864 19.4484 17.0743C19.5417 16.9951 19.761 16.7745 19.8334 16.6868C19.866 16.6472 19.9454 16.5652 20.0084 16.503C20.0737 16.4408 20.1764 16.3305 20.2394 16.2569C20.3 16.1806 20.3584 16.1212 20.3677 16.1212C20.3887 16.1212 20.5824 15.9402 20.6734 15.8383C20.7084 15.7987 20.7784 15.7422 20.8274 15.7111C20.8764 15.68 20.944 15.6347 20.9767 15.6092C21.1587 15.4707 21.3734 15.4678 21.6184 15.5979C21.8237 15.7111 21.9707 16.0222 21.966 16.3474C21.9637 16.6218 21.8447 16.8367 21.5204 17.1507C21.427 17.2412 21.35 17.326 21.35 17.3402C21.35 17.3543 21.315 17.3826 21.2754 17.4052C21.2334 17.425 21.1354 17.5155 21.0584 17.606C20.9814 17.6965 20.8764 17.8012 20.825 17.8408C20.7737 17.8804 20.706 17.9454 20.6734 17.9879C20.6407 18.0303 20.5357 18.1406 20.44 18.2311C20.3444 18.3216 20.251 18.4121 20.2347 18.4319C20.216 18.4517 20.1647 18.5054 20.118 18.5479C20.069 18.5903 20.027 18.6299 20.02 18.6384C20.013 18.6497 19.9664 18.6921 19.915 18.7402C19.775 18.8646 19.74 18.8986 19.656 18.9947C19.614 19.0428 19.565 19.0909 19.5464 19.0994C19.4974 19.122 19.25 19.3511 19.25 19.3737C19.25 19.4105 18.9677 19.5689 18.823 19.6141C18.7484 19.6368 18.6854 19.6566 18.683 19.6537C18.6807 19.6537 18.641 19.6396 18.5967 19.6226Z" fill="#20206B"/>
<path d="M21.4457 13.2053C21.3897 13.1911 21.2264 13.1685 21.0841 13.1515C20.9417 13.1346 20.7621 13.1091 20.6851 13.095C20.5451 13.0667 19.9897 12.9677 19.7284 12.9253C19.6514 12.914 19.5161 12.8885 19.4251 12.8715C19.3364 12.8546 19.1824 12.8263 19.0867 12.8121C18.9911 12.798 18.8861 12.7782 18.8534 12.7697C18.8207 12.7612 18.6807 12.7443 18.5384 12.7273C18.3984 12.7131 18.0717 12.6622 17.8151 12.617C16.6367 12.402 16.2167 12.3313 16.0417 12.3172C15.9391 12.3087 15.7967 12.2889 15.7267 12.2748C15.6567 12.2606 15.5284 12.2352 15.4397 12.221C15.3534 12.204 15.2134 12.1786 15.1247 12.1616C15.0384 12.1447 14.7911 12.0994 14.5717 12.0626C14.3547 12.023 14.0747 11.975 13.9534 11.9523C13.8321 11.9297 13.6594 11.9042 13.5684 11.8929C13.2557 11.859 12.985 11.8166 12.9384 11.7939C12.7004 11.6808 12.53 11.5366 12.4717 11.398C12.4554 11.3584 12.4297 11.2622 12.4157 11.183C12.3807 11.002 12.418 10.6937 12.4927 10.5495C12.523 10.4958 12.5627 10.4194 12.5814 10.3798C12.6024 10.3402 12.6677 10.2751 12.7307 10.2384C12.8357 10.1733 12.8637 10.1677 13.1717 10.1705C13.3537 10.1733 13.5754 10.1875 13.664 10.2073C13.9487 10.2667 14.0957 10.2949 14.5134 10.3685C14.7374 10.4081 15.0524 10.4646 15.2134 10.4958C15.3744 10.5269 15.6521 10.5693 15.8317 10.5919C16.1631 10.6343 16.2214 10.6428 16.7767 10.7475C16.9494 10.7786 17.1594 10.8182 17.2434 10.8323C17.3274 10.8465 17.4627 10.8691 17.5467 10.8861C17.7661 10.9285 18.2281 11.002 18.4451 11.0303C18.6084 11.0501 19.0121 11.118 19.4717 11.2C19.5487 11.2141 19.6864 11.2396 19.7751 11.2566C19.8661 11.2707 20.0061 11.2962 20.0901 11.3131C20.1741 11.3301 20.3304 11.3556 20.4401 11.3697C20.5497 11.3867 20.6641 11.4065 20.6967 11.415C20.7294 11.4234 20.8554 11.4432 20.9767 11.4545C21.3454 11.497 21.9987 11.6129 22.0851 11.6525C22.1107 11.6667 22.1947 11.7034 22.2717 11.7402C22.4514 11.8251 22.5867 11.9863 22.6311 12.1701C22.6777 12.3709 22.6544 12.6792 22.5797 12.8574C22.4491 13.1685 22.3161 13.2364 21.8634 13.2335C21.6907 13.2307 21.5017 13.2194 21.4457 13.2053Z" fill="#20206B"/>
<path d="M22.3066 9.24847C22.2483 9.23433 22.1129 9.20887 22.0033 9.1919C21.8936 9.17493 21.7583 9.14948 21.6999 9.13534C21.6416 9.1212 21.5016 9.09857 21.3849 9.0816C21.2706 9.0618 21.1166 9.03635 21.0466 9.02221C20.8039 8.9713 20.3956 8.90908 20.3069 8.90908C20.2579 8.90908 20.0409 8.87514 19.8216 8.83554C19.6046 8.79595 19.3526 8.75352 19.2616 8.73938C19.1729 8.72524 18.8463 8.66867 18.5406 8.61494C18.2326 8.55837 17.8966 8.50746 17.7939 8.49615C17.6283 8.48201 17.3576 8.43958 16.8466 8.34342C16.7626 8.32645 16.5853 8.29534 16.4499 8.27271C16.3146 8.25009 16.1676 8.22463 16.1233 8.21615C15.7336 8.14544 15.3346 8.08322 15.1689 8.06059C14.9939 8.0408 14.6136 7.97857 14.1283 7.8909C14.0513 7.87676 13.9416 7.85696 13.8833 7.84847C13.7643 7.82868 13.6989 7.80039 13.4936 7.68726C13.3443 7.60807 13.2813 7.52322 13.2043 7.29696C13.1623 7.16969 13.1646 6.86423 13.2136 6.70302C13.3023 6.39474 13.3116 6.3806 13.4866 6.2703C13.6429 6.17131 13.6639 6.16565 13.8646 6.16565C13.9836 6.16565 14.1376 6.17696 14.2076 6.19393C14.4666 6.2505 14.9753 6.33535 15.2249 6.36363C15.3673 6.3806 15.5399 6.40605 15.6099 6.41737C15.6799 6.43151 15.8176 6.45696 15.9133 6.47393C16.0089 6.4909 16.1559 6.51918 16.2399 6.53333C16.3239 6.55029 16.4593 6.57575 16.5433 6.58989C16.6273 6.60403 16.8746 6.64646 17.0916 6.68605C17.3109 6.72282 17.5513 6.76524 17.6283 6.77373C17.7053 6.78504 17.8849 6.8105 18.0249 6.83595C18.1673 6.85858 18.3493 6.88969 18.4333 6.901C18.5173 6.91514 18.6526 6.9406 18.7366 6.95757C18.8206 6.97454 18.9559 6.99999 19.0399 7.01413C19.1239 7.02827 19.3339 7.06504 19.5066 7.09898C19.6793 7.13009 19.9219 7.16969 20.0433 7.18666C20.3069 7.2206 21.0256 7.33938 21.3033 7.39312C21.4643 7.42706 21.6696 7.46383 21.9333 7.50625C22.0803 7.53171 22.2856 7.5713 22.3883 7.59393C22.4909 7.61655 22.6076 7.63635 22.6496 7.63635C22.7359 7.63635 22.9343 7.69575 23.0556 7.75797C23.0999 7.78059 23.1909 7.86544 23.2563 7.94463C23.3473 8.05777 23.3823 8.12564 23.4033 8.23595C23.4336 8.38867 23.4219 8.62625 23.3729 8.79595C23.3356 8.9317 23.1046 9.19756 22.9856 9.24281C22.8806 9.27958 22.4746 9.28241 22.3066 9.24847Z" fill="#20206B"/>
</g>
<defs>
<clipPath id="clip0">
<rect width="28" height="28" fill="white"/>
</clipPath>
</defs>
</svg>
