<svg width="28" height="28" viewBox="0 0 28 28" fill="none" xmlns="http://www.w3.org/2000/svg">
<g clip-path="url(#clip0)">
<path d="M6.29995 27.6172C6.0812 27.4094 5.87339 27.0703 5.8187 26.8734L5.7312 26.5234L14.3828 26.4687C23.9203 26.4031 23.3406 26.4578 23.8109 25.7359C23.9968 25.4625 24.0078 24.7406 24.0625 15.2031L24.1171 4.97656L24.3906 5.00937C24.5437 5.03125 24.8281 5.20625 25.025 5.41406L25.375 5.79687V16.4719V27.1578L24.9375 27.5844L24.489 28H15.5859H6.68276L6.29995 27.6172Z" fill="#20206B"/>
<path d="M3.23748 24.3797C2.59217 23.8766 2.62498 24.5328 2.62498 12.3594C2.62498 -0.021875 2.58123 0.689062 3.33592 0.21875C3.68592 0 3.86092 0 12.5562 0H21.4156L21.864 0.503125L22.3125 1.01719V12.2172C22.3125 24.6422 22.3562 23.9203 21.6015 24.3906C21.2515 24.6094 21.0765 24.6094 12.3922 24.6094C3.56561 24.6094 3.5328 24.6094 3.23748 24.3797ZM15.75 20.125V19.25L10.5328 19.2719L5.30467 19.3047L5.27186 20.1578L5.23905 21H10.5H15.75V20.125ZM19.6875 14.9516V14.1422L14.9078 14.0766C12.2828 14.0328 9.03436 14 7.68905 14H5.24998V14.875V15.75H12.4687H19.6875V14.9516ZM19.6656 9.7125C19.6328 8.925 19.6109 8.80469 19.4469 8.81562C19.3375 8.81562 16.1 8.82656 12.25 8.8375L5.24998 8.85937V9.73437V10.6094H12.4687H19.6984L19.6656 9.7125ZM19.6875 4.45156V3.64219L15.0719 3.57656C12.5344 3.53281 9.28592 3.5 7.85311 3.5H5.24998V4.375V5.25H12.4687H19.6875V4.45156Z" fill="#20206B"/>
</g>
<defs>
<clipPath id="clip0">
<rect width="28" height="28" fill="white"/>
</clipPath>
</defs>
</svg>
