<svg width="25" height="25" viewBox="0 0 25 25" fill="none" xmlns="http://www.w3.org/2000/svg">
<g clip-path="url(#clip0)">
<path d="M10.3522 14.6479C7.96595 12.2617 7.42715 9.87546 7.3056 8.91943C7.27164 8.65508 7.36261 8.38998 7.55172 8.20218L9.48276 6.27201C9.76682 5.98813 9.81722 5.54571 9.60431 5.2052L6.52974 0.431065C6.29419 0.0540168 5.81053 -0.0820636 5.41293 0.116841L0.477154 2.44141C0.155627 2.59973 -0.03349 2.94135 0.00301576 3.29787C0.261636 5.75477 1.33276 11.7944 7.2681 17.7302C13.2034 23.666 19.2422 24.7367 21.7004 24.9953C22.057 25.0318 22.3986 24.8427 22.5569 24.5212L24.8815 19.5854C25.0796 19.1886 24.9444 18.7063 24.569 18.4703L19.7948 15.3966C19.4545 15.1834 19.0121 15.2335 18.728 15.5173L16.7978 17.4483C16.61 17.6374 16.3449 17.7284 16.0806 17.6944C15.1246 17.5729 12.7384 17.0341 10.3522 14.6479Z" fill="#20206B"/>
<path d="M19.8276 13.3621C19.3515 13.3621 18.9655 12.9761 18.9655 12.5C18.9615 8.93086 16.0691 6.03851 12.5 6.03447C12.0239 6.03447 11.6379 5.64851 11.6379 5.1724C11.6379 4.69629 12.0239 4.31033 12.5 4.31033C17.021 4.31532 20.6847 7.97904 20.6897 12.5C20.6897 12.9761 20.3037 13.3621 19.8276 13.3621Z" fill="#20206B"/>
<path d="M24.1379 13.3621C23.6618 13.3621 23.2759 12.9761 23.2759 12.5C23.2692 6.55141 18.4486 1.73079 12.5 1.72414C12.0239 1.72414 11.6379 1.33818 11.6379 0.862069C11.6379 0.385961 12.0239 0 12.5 0C19.4004 0.00760167 24.9924 5.59959 25 12.5C25 12.7286 24.9092 12.9479 24.7475 13.1096C24.5858 13.2712 24.3666 13.3621 24.1379 13.3621Z" fill="#20206B"/>
</g>
<defs>
<clipPath id="clip0">
<rect width="25" height="25" fill="white"/>
</clipPath>
</defs>
</svg>
