<svg width="28" height="28" viewBox="0 0 28 28" fill="none" xmlns="http://www.w3.org/2000/svg">
<path d="M26.5704 7.43894C26.2679 6.31438 25.3813 5.4279 24.2569 5.12509C22.2027 4.56305 13.986 4.56305 13.986 4.56305C13.986 4.56305 5.76958 4.56305 3.71544 5.10378C2.61266 5.40627 1.70439 6.31454 1.4019 7.43894C0.861328 9.49292 0.861328 13.7526 0.861328 13.7526C0.861328 13.7526 0.861328 18.0338 1.4019 20.0663C1.70471 21.1907 2.59103 22.0772 3.7156 22.38C5.79121 22.9422 13.9863 22.9422 13.9863 22.9422C13.9863 22.9422 22.2027 22.9422 24.2569 22.4014C25.3815 22.0988 26.2679 21.2123 26.5708 20.0879C27.1112 18.0338 27.1112 13.7742 27.1112 13.7742C27.1112 13.7742 27.1328 9.49292 26.5704 7.43894V7.43894ZM11.37 17.6879V9.81736L18.2026 13.7526L11.37 17.6879Z" fill="#20206B"/>
</svg>
